#!OML:ASF C:\ViconDB\ViconDB\414\Spring2016\041811\Spring2016.ASF
:FULLY-SPECIFIED
:DEGREES
215
root 6.34921 20.2411 -15.2919 -169.789 -6.19535 179.116
lowerback 16.3031 1.06009 -1.90529
upperback 1.93335 0.806401 0.155254
thorax -7.10789 0.333287 1.08243
lowerneck -19.9155 2.75307 -6.7249
upperneck 19.5097 3.46245 9.15117
head 9.1018 2.07223 4.7396
rclavicle 8.15017e-015 7.95139e-015
rhumerus -19.9103 6.17309 -70.3487
rradius 96.9915
rwrist -2.2102
rhand -35.7728 -18.5666
rfingers 7.12502
rthumb -8.8906 -48.3593
lclavicle 8.15017e-015 7.95139e-015
lhumerus -13.731 -6.19505 61.9692
lradius 80.2662
lwrist 5.20604
lhand -35.9263 15.3056
lfingers 7.12502
lthumb -9.0387 45.092
rfemur -26.2689 -20.4913 23.9952
rtibia 22.7435
rfoot -24.7994 5.23542
rtoes -9.33034
lfemur -20.5368 -8.17875 -10.6087
ltibia 12.466
lfoot 0.424006 12.8141
ltoes -10.5574
216
root 6.34438 20.0884 -15.3934 -169.845 -6.31904 179.203
lowerback 17.4953 1.01987 -1.72558
upperback 2.17412 0.712047 0.158584
thorax -7.49819 0.261904 1.0004
lowerneck -20.1166 2.80735 -6.67185
upperneck 18.9712 3.61805 9.02071
head 8.94361 2.15522 4.68925
rclavicle 1.77415e-014 9.93923e-017
rhumerus -20.5821 5.89138 -71.0251
rradius 95.4594
rwrist -1.18867
rhand -35.8849 -18.1067
rfingers 7.12502
rthumb -8.99876 -47.8948
lclavicle 1.77415e-014 9.93923e-017
lhumerus -14.4464 -6.34247 62.8771
lradius 79.4338
lwrist 4.42301
lhand -36.1685 15.2123
lfingers 7.12502
lthumb -9.27236 44.9884
rfemur -27.5319 -20.1889 24.186
rtibia 23.5268
rfoot -25.7895 5.3008
rtoes -8.75799
lfemur -22.1726 -7.16878 -10.4472
ltibia 13.2755
lfoot 0.16113 12.5478
ltoes -11.2121
217
root 6.34552 19.9155 -15.4957 -169.936 -6.42976 179.26
lowerback 18.6716 1.05762 -1.62623
upperback 2.43353 0.705179 0.187334
thorax -7.85918 0.232518 0.972967
lowerneck -20.3119 2.81873 -6.75793
upperneck 18.4679 3.705 9.0725
head 8.79587 2.21309 4.71862
rclavicle 2.48481e-016 2.68359e-015
rhumerus -21.2777 5.84953 -71.4091
rradius 94.0835
rwrist -1.15653
rhand -36.6726 -17.5439
rfingers 7.12502
rthumb -9.7588 -47.2978
lclavicle 2.48481e-016 2.68359e-015
lhumerus -15.3324 -6.53628 63.9134
lradius 78.7959
lwrist 3.60456
lhand -36.121 14.7896
lfingers 7.12502
lthumb -9.22656 44.5677
rfemur -28.8012 -19.4622 24.218
rtibia 24.8159
rfoot -26.5218 5.54381
rtoes -8.54773
lfemur -23.9579 -5.54244 -10.555
ltibia 14.5827
lfoot 0.378682 11.5365
ltoes -11.0941
218
root 6.34037 19.7039 -15.605 -170.033 -6.45284 179.352
lowerback 19.7569 1.09455 -1.53504
upperback 2.68884 0.699183 0.238145
thorax -8.17038 0.202858 0.975242
lowerneck -20.467 2.86251 -6.71238
upperneck 17.9885 3.84794 8.87951
head 8.65332 2.27867 4.64748
rclavicle -3.97569e-016 2.08724e-015
rhumerus -22.0202 6.0965 -71.7341
rradius 92.8379
rwrist -1.14696
rhand -37.1983 -18.0452
rfingers 7.12502
rthumb -10.2659 -47.7747
lclavicle -3.97569e-016 2.08724e-015
lhumerus -15.9986 -6.55565 64.9664
lradius 77.8499
lwrist 2.73065
lhand -35.9353 14.4463
lfingers 7.12502
lthumb -9.04738 44.2323
rfemur -30.1804 -19.018 24.3035
rtibia 26.6548
rfoot -27.3575 4.91806
rtoes -8.27871
lfemur -25.9666 -3.73706 -10.7581
ltibia 16.4809
lfoot 0.886216 10.2326
ltoes -10.9223
219
root 6.33448 19.4717 -15.7214 -170.183 -6.33058 179.568
lowerback 20.7829 1.16554 -1.32914
upperback 2.94858 0.757849 0.237823
thorax -8.43888 0.197718 0.839968
lowerneck -20.5272 2.93104 -6.52856
upperneck 17.4669 3.95674 8.74119
head 8.4856 2.33969 4.56391
rclavicle 6.11263e-015 -7.65321e-015
rhumerus -22.9152 6.1209 -72.2946
rradius 91.729
rwrist -1.43907
rhand -37.2655 -17.7115
rfingers 7.12502
rthumb -10.3307 -47.4377
lclavicle 6.11263e-015 -7.65321e-015
lhumerus -16.8981 -6.97011 65.772
lradius 77.2065
lwrist 2.20314
lhand -35.7828 14.2263
lfingers 7.12502
lthumb -8.90021 44.0186
rfemur -31.7163 -18.6043 24.5605
rtibia 28.9942
rfoot -28.4148 4.47849
rtoes -8.49891
lfemur -28.1586 -1.42612 -11.0693
ltibia 19.054
lfoot 1.80756 7.94351
ltoes -11.0441
220
root 6.33271 19.2041 -15.8352 -170.367 -6.49529 179.785
lowerback 21.8998 1.13692 -1.05332
upperback 3.14957 0.710661 0.274563
thorax -8.81247 0.141935 0.733678
lowerneck -20.5036 2.95295 -6.43539
upperneck 16.9881 3.9963 8.69751
head 8.32015 2.36783 4.51903
rclavicle 4.17448e-015 -1.49089e-015
rhumerus -23.8973 6.06001 -72.7202
rradius 90.6258
rwrist -1.08402
rhand -36.8117 -17.9044
rfingers 7.12502
rthumb -9.89293 -47.6519
lclavicle 4.17448e-015 -1.49089e-015
lhumerus -17.9109 -7.1626 66.6184
lradius 76.5481
lwrist 1.70583
lhand -35.4934 13.8993
lfingers 7.12502
lthumb -8.62091 43.7033
rfemur -33.3774 -18.2603 24.8026
rtibia 32.04
rfoot -28.9902 3.89393
rtoes -11.0803
lfemur -30.6222 0.786192 -11.4773
ltibia 22.1521
lfoot 3.01394 4.93487
ltoes -11.4848
